HIERARCHY
ROOT Hips
{
	OFFSET 0.000000 0.000000 0.000000 
	CHANNELS 6 Xposition Yposition Zposition Xrotation Yrotation Zrotation
	JOINT Spine
	{
		OFFSET 0.000000 1.722820 2.584230 
		CHANNELS 3 Xrotation Yrotation Zrotation
		JOINT Spine1
		{
			OFFSET 0.000000 0.598330 3.393290 
			CHANNELS 3 Xrotation Yrotation Zrotation
			JOINT Spine2
			{
				OFFSET 0.000000 0.300310 3.432520 
				CHANNELS 3 Xrotation Yrotation Zrotation
				JOINT Spine3
				{
					OFFSET 0.000000 0.000000 3.445640 
					CHANNELS 3 Xrotation Yrotation Zrotation
					JOINT Neck
					{
						OFFSET 0.000000 -1.292100 9.044790 
						CHANNELS 3 Xrotation Yrotation Zrotation
						JOINT Head
						{
							OFFSET 0.000000 -0.822700 4.665770 
							CHANNELS 3 Xrotation Yrotation Zrotation
							End Site
							{
								OFFSET 0.000000 0.000010 5.577620 
							}
						}
					}
					JOINT RightShoulder
					{
						OFFSET -1.175120 -1.958530 6.345670 
						CHANNELS 3 Xrotation Yrotation Zrotation
						JOINT RightArm
						{
							OFFSET -5.836450 0.000000 0.000000 
							CHANNELS 3 Xrotation Yrotation Zrotation
							JOINT RightForeArm
							{
								OFFSET -10.886420 0.000000 0.000000 
								CHANNELS 3 Xrotation Yrotation Zrotation
								JOINT RightHand
								{
									OFFSET -10.194950 0.000000 0.000000 
									CHANNELS 3 Xrotation Yrotation Zrotation
									JOINT RightHandEnd
									{
										OFFSET -2.735920 0.000000 0.000000 
										CHANNELS 3 Xrotation Yrotation Zrotation
										End Site
										{
											OFFSET -2.735920 0.000000 0.000000 
										}
									}
									JOINT RightHandThumb1
									{
										OFFSET -1.094370 -1.823950 -0.729580 
										CHANNELS 3 Yrotation Xrotation Zrotation
										End Site
										{
											OFFSET -2.642700 -0.708110 0.000000 
										}
									}
								}
							}
						}
					}
					JOINT LeftShoulder
					{
						OFFSET 1.175120 -1.958530 6.345670 
						CHANNELS 3 Xrotation Yrotation Zrotation
						JOINT LeftArm
						{
							OFFSET 5.836450 0.000000 0.000000 
							CHANNELS 3 Xrotation Yrotation Zrotation
							JOINT LeftForeArm
							{
								OFFSET 10.886420 0.000000 0.000000 
								CHANNELS 3 Xrotation Yrotation Zrotation
								JOINT LeftHand
								{
									OFFSET 10.194950 0.000000 0.000000 
									CHANNELS 3 Xrotation Yrotation Zrotation
									JOINT LeftHandEnd
									{
										OFFSET 2.735920 0.000000 0.000000 
										CHANNELS 3 Xrotation Yrotation Zrotation
										End Site
										{
											OFFSET 2.735920 0.000000 0.000000 
										}
									}
									JOINT LeftHandThumb1
									{
										OFFSET 1.094370 -1.823950 -0.729580 
										CHANNELS 3 Yrotation Xrotation Zrotation
										End Site
										{
											OFFSET 2.642700 -0.708110 0.000000 
										}
									}
								}
							}
						}
					}
				}
			}
		}
	}
	JOINT RightUpLeg
	{
		OFFSET -3.486200 0.000000 -1.018440 
		CHANNELS 3 Xrotation Yrotation Zrotation
		JOINT RightLeg
		{
			OFFSET 0.000010 0.000000 -16.688210 
			CHANNELS 3 Xrotation Yrotation Zrotation
			JOINT RightFoot
			{
				OFFSET 0.000010 0.000000 -16.775360 
				CHANNELS 3 Xrotation Yrotation Zrotation
				JOINT RightToeBase
				{
					OFFSET 0.000000 -4.945160 -1.799890 
					CHANNELS 3 Xrotation Yrotation Zrotation
					End Site
					{
						OFFSET 0.000000 -2.820300 -0.000000 
					}
				}
			}
		}
	}
	JOINT LeftUpLeg
	{
		OFFSET 3.486200 0.000000 -1.018440 
		CHANNELS 3 Xrotation Yrotation Zrotation
		JOINT LeftLeg
		{
			OFFSET 0.000010 0.000000 -16.688210 
			CHANNELS 3 Xrotation Yrotation Zrotation
			JOINT LeftFoot
			{
				OFFSET 0.000010 0.000000 -16.775360 
				CHANNELS 3 Xrotation Yrotation Zrotation
				JOINT LeftToeBase
				{
					OFFSET 0.000000 -4.945160 -1.799890 
					CHANNELS 3 Xrotation Yrotation Zrotation
					End Site
					{
						OFFSET 0.000000 -2.820300 -0.000000 
					}
				}
			}
		}
	}
}
MOTION
Frames: 4
Frame Time: 0.008333
-4.984700 36.638302 -8.656000 -89.388397 -0.775000 17.665100 0.847700 3.405500 0.392400 1.180600 0.126100 0.150700 2.142400 0.104300 3.205100 -0.396300 0.191000 0.569400 -2.741500 -1.095700 -5.426900 -9.053900 0.285800 -19.232599 2.302900 -3.916900 0.628000 40.921299 -50.562500 40.543701 -0.000000 0.000000 39.023201 -1.551400 -8.098600 -7.165300 -0.000000 0.000000 -0.000000 -0.000000 0.000000 0.000000 3.602700 9.221700 -0.416400 27.613800 56.052101 -20.500000 -0.000000 -0.000100 -62.654202 -1.450400 8.635600 7.690700 -0.000000 0.000000 -0.000000 -0.000000 -0.000000 -0.000000 -8.507600 15.717900 -17.265800 39.650200 0.000000 0.000000 -7.021700 -4.173300 -13.994800 -4.889900 0.000000 -0.000000 -0.502700 1.082600 -1.997600 14.857300 0.000000 0.000000 -16.527300 2.615100 1.562400 -1.149600 0.000000 -0.000000 
-4.933300 36.637402 -8.636400 -89.417397 -0.722900 17.701700 0.911100 3.418900 0.362200 1.215800 0.129400 0.148900 2.139100 0.093400 3.125200 -0.402700 0.198100 0.555300 -2.715900 -1.097500 -5.409000 -9.143800 0.230200 -19.153601 2.319000 -3.945200 0.604600 41.487701 -50.826500 41.088501 -0.000000 0.000000 38.799500 -1.627800 -8.154600 -7.242100 0.000000 -0.000000 0.000000 0.000000 -0.000000 -0.000000 3.685100 9.258800 -0.439000 27.372101 55.909302 -20.091600 -0.000000 -0.000100 -62.594002 -1.685500 8.488000 7.737200 0.000000 -0.000000 0.000000 -0.000000 -0.000000 -0.000000 -9.260200 15.667400 -16.814400 40.839298 0.000000 0.000000 -7.114500 -4.162100 -14.023800 -4.933100 0.000000 -0.000000 -0.444500 1.091200 -2.040900 14.886100 0.000000 0.000000 -16.634300 2.660800 1.557700 -1.072600 0.000000 -0.000000 
-4.884700 36.636501 -8.614100 -89.442596 -0.665200 17.747200 0.965200 3.421000 0.333000 1.246800 0.131600 0.146600 2.167200 0.096500 3.039300 -0.402800 0.209000 0.540100 -2.753300 -1.116100 -5.418100 -9.232900 0.195200 -19.068600 2.307700 -3.953300 0.559600 42.086498 -51.104401 41.656200 -0.000000 0.000000 38.547798 -1.641000 -8.305600 -7.275500 0.000000 -0.000000 -0.000000 -0.000000 0.000000 0.000000 3.749900 9.276100 -0.443900 27.169300 55.761902 -19.711000 -0.000000 -0.000100 -62.554001 -1.969100 8.323100 7.729400 -0.000000 0.000000 -0.000000 0.000000 -0.000000 0.000000 -10.008800 15.596200 -16.409901 41.991901 0.000000 0.000000 -7.227100 -4.167400 -13.961300 -4.997000 0.000000 -0.000000 -0.384200 1.089700 -2.080600 14.902600 0.000000 0.000000 -16.724001 2.670100 1.540600 -1.026200 0.000000 -0.000000 
-4.839000 36.636200 -8.589200 -89.461899 -0.598800 17.803200 1.018900 3.412800 0.304000 1.279000 0.137600 0.144900 2.205700 0.093300 2.939300 -0.409400 0.223800 0.533500 -2.828900 -1.122300 -5.455400 -9.305900 0.151500 -18.965099 2.308100 -3.952500 0.504300 42.667801 -51.384102 42.201302 -0.000000 0.000000 38.295898 -1.579500 -8.548600 -7.301500 0.000000 0.000000 -0.000000 0.000000 0.000000 -0.000000 3.813500 9.302300 -0.439700 26.989700 55.589298 -19.332100 -0.000000 -0.000100 -62.553001 -2.278100 8.110300 7.785000 -0.000000 0.000000 -0.000000 0.000000 -0.000000 0.000000 -10.750200 15.504700 -16.051600 43.101501 0.000000 0.000000 -7.401900 -4.252300 -13.822100 -4.971400 0.000000 -0.000000 -0.324600 1.074400 -2.122200 14.906500 0.000000 0.000000 -16.806499 2.678800 1.515100 -0.982500 0.000000 -0.000000 
